<?xml version="1.0" encoding="UTF-8"?>
<svg id="Layer_1" data-name="Layer 1" xmlns="http://www.w3.org/2000/svg" viewBox="0 0 784 142">
  <defs>
    <style>
      .cls-1 {
        fill: #f5f9eb;
        stroke-width: 0px;
      }
    </style>
  </defs>
  <path class="cls-1" d="M163,0c7.12,1.58,13.12,5.24,18.33,10.19,4.27,4.06,8.84,1.15,13.11.57,7.47-1.01,14.87-1.87,21.49,2.44,2.85,1.86,5.64,4.6,7.12,7.61,3.02,6.12,7.24,9.48,14.15,9.34.86-.02,1.73.67,2.83,1.13-1.64,4.22-3.92,4.9-8.32,4.25-5.51-.81-11.3.3-16.25.54-1.97-2.68-3.96-5.49-6.04-8.23-2.17-2.87-4.4-5.69-6.63-8.5-.62-.78-1.24-1.77-2.08-2.11-1.18-.47-2.57-.43-3.87-.6.03,1.3-.03,2.61.13,3.89.27,2.2.93,4.38.94,6.56,0,2.45-.54,4.89-.9,7.76-9.92-2.23-19.05-7.08-27.97-12.45-.28-.17-.46-.53-.74-.66-1.99-.84-4.01-1.64-6.01-2.45-.12,1.94-.38,3.88-.33,5.81.28,10.19-1.65,19.87-9.11,27.17-3.57,3.49-8.72,5.37-13.82,8.38.77,6.43-2.52,14.59,3.01,21.32,2.54,3.09,5.85,5.8,9.32,7.81,6.89,3.99,12.72,11.11,21.93,9.19,6.19-1.29,12.21-3.38,18.31-5.12.89-.25,1.78-.54,2.66-.81.36.37.72.73,1.08,1.1-1.23,1.29-2.39,2.66-3.72,3.84-2.76,2.45-5.49,4.97-8.46,7.13-1.73,1.26-3.85,2.5-5.9,2.69-4.39.4-9-.62-12.42,3.5-.33.4-3.4-.55-3.42-.97-.57-11.01-9.73-12.28-17.21-15.45-.9-.38-1.95-.6-2.67-1.21-10.55-8.96-28.9-5.48-37.26,3.02-11.67,11.88-25.47,14.37-40.74,14.24-1.1,0-2.19.16-4.23.32,5.23,6.33,13.35,5.23,18.76,10.1-4.94.09-7.06,6.39-12.91,4.78-1.95-.54-4.65.95-6.78,1.97-3.34,1.59-6.04.43-6.25-3.29-.22-3.99.02-7.99-.08-11.99-.1-3.78-1.72-5.24-5.88-6.18-6.33-1.44-10.6,1.04-15.29,4.22-3.92,2.66-10.42,0-11.56-4.57-.24-.95.57-2.61,1.42-3.33,3.61-3.08,7.01-7.05,11.26-8.59,5.68-2.07,5.56-5.49,4.68-10.38-4.87,1.78-9.71,3.46-14.46,5.37-.94.38-1.64,1.59-2.25,2.55-1.83,2.9-2.67,6.1-7.74,5.88-2.53-.11-5.18,4.16-7.94,6.24C3.06,104.96,1.44,105.36,0,106c0-2,0-4,0-6,.94-1.08,1.93-2.11,2.82-3.23,4.37-5.56,9.57-10.37,9.88-18.52.17-4.51,2.72-9.21,5.12-13.29,4.69-7.99,9.84-15.72,15.15-23.31,3.14-4.48,6.38-9.25,10.63-12.52,7.23-5.55,15.14-10.28,23.07-14.83,4.7-2.7,9.95-4.47,15.02-6.49,1.94-.78,4.07-1.1,6.11-1.65,14.61-3.89,28.65-3.8,41.05,6.33,4.04,3.3,7.06,2.52,10.46-1.06,3.2-3.38,6.83-6.42,10.58-9.22C151.54.97,153.94.71,156,0c2.33,0,4.67,0,7,0Z"/>
  <g>
    <path class="cls-1" d="M539,142c-2.74-.68-5.46-1.52-8.23-2.02-3.76-.67-6.36-3.17-6.22-6.48.08-1.96,3.24-3.79,5.03-5.66.34-.35.78-.6.27-.22-1.73-2.8-4.92-5.73-4.4-7.63.84-3.05,4.14-5.43,6.63-8.37.33.42.01-.16-.46-.56-3.83-3.26-5.92-7.08-3.93-12.19,2.31-5.92,6.35-8.68,12.88-8.81,4.77-.1,9.53-.44,13.78,2.71,1.01.75,2.98.17,4.51.25,1.92.1,4.29-.36,5.59.61.84.62.81,4.16-.1,4.97-1.24,1.1-3.69.84-5.98,1.23,1.3,4.49-.17,8.73-4.6,11.78-4.23,2.92-8.75,3.75-13.95,2.9-2.21-.36-4.77,1.42-7.17,2.23.1.85.2,1.7.29,2.54,5.38.26,10.78.26,16.11.88,3.11.36,6.68.98,9.02,2.8,5.5,4.27,4.45,12.17-1.89,15.14-3.84,1.8-8.13,2.63-12.22,3.89h-5ZM532.27,132.37c3.16,6.58,17.38,8.01,21.72,1.96.65-.91-.02-3.94-1.03-4.69-4.87-3.58-16.54-1.84-20.69,2.73ZM536.09,100.66c.99,3.28,1.39,5.2,2.14,6.97,1.27,2.98,3.64,4.44,6.7,2.92,4.87-2.42,5.59-12.74,1.1-15.91-1.18-.83-3.85-1.32-4.63-.62-2.21,1.98-3.8,4.66-5.31,6.64Z"/>
    <path class="cls-1" d="M784,117c-6.01,4.78-12.51,7.59-20.35,5.13-7.98-2.51-10.99-7.64-10.58-18.03.27-6.64,5.07-12.42,11.63-14.03,7.23-1.77,14.38-.07,19.29,7.92v6c-7.23-.39-14.46-.78-21.86-1.18.34,2.1.44,3.73.88,5.27,2.1,7.37,8.79,10.29,15.75,7.11,1.59-.73,3.48-.82,5.23-1.21v3ZM774.86,99.78c-.41-3.95-1.82-6.87-5.89-6.75-3.84.11-5.43,2.88-6.04,6.75h11.93Z"/>
    <path class="cls-1" d="M299.67,99.58c.06.38.27.9.15.99-5.94,4.42-3.01,11.39-4.94,16.95-.37,1.07-1.12,2.6-1.97,2.82-12.05,3.16-23.97,5.29-35.5-2.24-6.93-4.53-9.91-16.8-8.98-22.99,3.48-23.22,26.36-26.49,42.13-20.69,5.72,2.11,4.18,7.4,4.36,13.45-2.48-1.57-4.64-2.25-5.68-3.71-3.65-5.14-8.54-8.2-14.63-7.02-5.85,1.14-9.91,5.05-11.87,11.21-3.18,9.97-2.52,19.02,4.92,26.83,3.57,3.75,10.39,5.25,14.23,2.1,2.18-1.79,2.8-6.18,2.94-9.45.07-1.58-2.59-3.28-4.03-4.91-.86-.97-1.75-1.9-2.63-2.85,1.16-.66,2.35-1.94,3.48-1.89,5.91.27,11.8.88,18.03,1.39Z"/>
    <path class="cls-1" d="M632.61,87.9c-1.94-1.28-3.62-1.87-4.5-3.06-4.12-5.61-9.47-9.42-16.4-7.55-7.05,1.9-10.2,7.77-11.95,14.85-1.66,6.72-.17,12.65,2.49,18.49,2.83,6.23,10.34,9.45,16.74,7.28,1.49-.51,3.32-2.01,3.69-3.39.65-2.5.27-5.27.41-7.92.2-3.71-3.14-3.03-5.01-4.21-.81-.51-1.28-1.58-1.9-2.4,1.19-.64,2.4-1.86,3.55-1.81,5.91.27,11.8.87,18.32,1.41-.35,1.08-.56,3.01-1.07,3.09-3.78.62-3.05,3.42-3.02,5.79.15,12.93.63,11.63-12.14,14.17-5.64,1.12-11.92.35-17.68-.76-10.53-2.03-16.51-10.86-17.17-21.59-1.64-26.55,25.14-33.12,42.54-25.27,3.79,1.71,3.79,2.1,3.1,12.89Z"/>
    <path class="cls-1" d="M337.17,118.78c4.18.85,6.09-.51,5.97-5.12-.24-9.83-.24-19.67.01-29.49.1-3.76-.96-5.74-5.23-5.43-.08-.55-.15-1.09-.23-1.64,4.4-1.84,8.79-3.67,14.23-5.94,0,6.15,0,11.22,0,16.29,0,8.5.11,17-.05,25.5-.07,4.07,1.19,6.21,5.65,6.19,4.21-.02,5.78-1.53,5.63-5.9-.31-9.16-.21-18.33-.04-27.49.07-3.85.3-7.41-5.66-7.25.09-.54.18-1.09.27-1.63,4.5-1.74,9.01-3.47,14.2-5.48,0,14.19.08,27.34-.05,40.48-.04,3.91-.23,7.46,5.19,7.42.3,0,.6,1.26,1.21,2.62-13.34,0-26.1.05-38.86-.14-.71-.01-1.4-2.05-2.09-3.14l-.15.15Z"/>
    <path class="cls-1" d="M417.38,92.59c4.45-1.89,9.01-3.82,13.95-5.92.38,1.98.68,3.51,1.03,5.35,8.26-2.94,16.21-3.9,22.17,4.19,3.71,5.04,3.36,14.19-.67,19.92-5.62,7.98-13.34,7.91-21.93,5.16,0,3.84.49,7.57-.12,11.12-.89,5.18,4.57,4.57,6.88,7.99h-22.11c.93-1.11,1.48-2.42,2.31-2.64,4.19-1.12,4.37-4.11,4.21-7.63-.44-10.08-.44-20.2-1.23-30.25-.19-2.42-2.8-4.65-4.5-7.29ZM431.93,97.63c0,4.67.22,9.47-.07,14.24-.22,3.55,1.2,6.42,4.34,6.6,3.06.18,6.96-.74,9.2-2.67,3.38-2.9,2.84-11.15.04-14.93-3.41-4.61-7.17-5.57-13.51-3.24Z"/>
    <path class="cls-1" d="M481.71,95.19c4.42-2.53,8.85-5.07,13.81-7.91.3,2.44.47,3.89.58,4.8,4.33-.69,8.51-1.74,12.73-1.92,5.14-.22,8.93,3.81,9.08,8.96.08,2.83-.05,5.66.03,8.49.14,4.97-1.9,10.75,4.81,13.85h-18.58c.08-.59.14-1.76.26-1.76,5.6-.32,4.62-4.42,4.64-7.94.01-3.5-.03-6.99.01-10.49.04-3.73-1.74-5.98-5.45-6.3-3.52-.3-7.52,2.95-7.65,6.24-.18,4.49-.19,9,.06,13.48.07,1.18,1.34,2.3,2.11,3.42.66.96,1.4,1.87,2.6,3.46h-19.18c1.61-3.28,6.81-3.08,5.65-7.83-.77-3.14-.34-6.64-.09-9.95.3-3.95-.81-6.75-5.41-8.6Z"/>
    <path class="cls-1" d="M699.51,122.93c-12.44-.03-18.36-7.33-18.28-17.14.09-10.56,7.69-16.38,17.64-16.49,10.7-.12,17.81,6.27,17.89,16.63.07,9.46-5.99,17.5-17.25,17.01ZM707.15,105.83c-.54-2.88-.68-5.39-1.51-7.66-1.22-3.34-3.97-5.98-7.46-4.99-2.37.67-5.51,3.42-5.83,5.6-.74,5.03-.09,10.28.24,15.43.21,3.38,2.62,4.61,5.7,4.86,3.32.27,5.86-.8,6.78-4.22.84-3.12,1.45-6.31,2.07-9.02Z"/>
    <path class="cls-1" d="M642.07,106.66c-1.02-12.3,8.12-17.41,17.39-17.37,9.88.04,16.73,4.91,17.38,16.5.54,9.64-6.92,17.75-17.64,17.24-10.8-.51-17.13-6.11-17.13-16.37ZM667.3,105.28c-.38-2-.18-4.7-1.39-6.36-1.73-2.39-4.28-5.23-6.87-5.69-3.7-.66-6.53,2.44-6.97,6.19-.5,4.27-.87,8.83.15,12.9.65,2.59,3.54,5.5,6.12,6.5,3.32,1.29,6.49-.79,7.51-4.52.76-2.82.96-5.8,1.46-9.02Z"/>
    <path class="cls-1" d="M380.07,106.22c-.91-11.31,7.54-16.45,17.27-17.05,10.19-.62,17.37,7.06,17.65,17.4.23,8.69-7.45,16.92-17.51,16.46-11.01-.5-17.42-6.24-17.42-16.82ZM389.61,106.82c.37,2.16.22,5.23,1.5,7.48,1.15,2.05,3.65,3.84,5.93,4.62,3.36,1.16,6.17-1.06,6.56-4.21.66-5.38,1.01-10.99.14-16.28-.35-2.13-4.04-4.76-6.56-5.23-3.43-.64-6.05,1.93-6.65,5.69-.38,2.41-.57,4.85-.92,7.92Z"/>
    <path class="cls-1" d="M337.32,118.63c-3.7,4.23-8.52,4.91-12.96.56-3.61,1.25-7.11,3.31-10.67,3.42-2.79.09-7.08-1.51-8.17-3.65-1.69-3.31-.68-7.68,3.36-9.79,4.49-2.35,9.18-4.31,14.16-6.61,0-1.61.44-3.58-.12-5.19-.58-1.65-2.32-4.26-3.25-4.14-2.21.29-5.66-.11-5.78,3.89-.03,1.08-.4,2.71-1.14,3.11-2.42,1.3-5.08,2.14-7.65,3.16.51-2.47.28-5.48,1.65-7.29,3.96-5.23,14-7.95,19.88-5.75,3.54,1.32,5.43,4.02,5.35,8.04-.12,5.77-.03,11.54-.03,18.03,1.78-1.11,2.86-1.78,4.47-2.79.3,2.06.53,3.61.77,5.16,0,0,.16-.16.16-.16ZM323.48,107.66c-.36-.24-.72-.48-1.08-.72-2.1,1.46-4.65,2.58-6.15,4.51-.94,1.22-.31,3.66-.38,5.55,1.97-.46,4.95-.29,5.7-1.51,1.34-2.18,1.34-5.18,1.91-7.84Z"/>
    <path class="cls-1" d="M723.37,110.49c1.51,1.46,3.25,2.75,4.47,4.42,3.03,4.17,7.76,5.58,10.88,2.97,2.59-2.16,2.33-4.66-.81-5.87-2.42-.93-4.99-1.46-7.5-2.12-5.3-1.4-8.96-6.26-8.32-11.11.74-5.67,4.41-8.7,10.58-8.72,1.33,0,2.66,0,4,0,8.79,0,9.73,1.08,8.86,11.79-2.1-1.7-3.57-2.88-5.03-4.06-1.82-1.46-3.47-3.67-5.52-4.15-1.71-.4-3.9,1.22-5.88,1.95,1.29,1.8,2.2,4.28,3.95,5.25,2.47,1.38,5.7,1.33,8.36,2.48,5.18,2.24,7.4,6.03,6.45,10.93-.95,4.87-4.39,8-9.07,8.45-4.33.41-9.05.14-13.15-1.2-4.76-1.55-3.48-6.26-2.26-11.02Z"/>
    <path class="cls-1" d="M459.5,121.41c.95-1.17,1.4-2.28,2.02-2.39,4.67-.82,4.85-4.03,4.59-7.77-.21-2.98-.25-6.01,0-8.99.37-4.36-.58-7.29-6.17-6.44-.06-.54-.12-1.08-.18-1.62,4.82-2.18,9.64-4.36,15.16-6.86,0,9.29.1,17.44-.05,25.59-.06,3.26.11,5.97,4.22,6.34.35.03.62.96,1.31,2.14h-20.92Z"/>
    <path class="cls-1" d="M271.59,30.58v8.53c-2.7-1.81-5.02-3.36-7.34-4.92-.44.34-.87.68-1.31,1.02,0,5.79-.28,11.61.18,17.37.13,1.63,2.37,3.1,3.97,5.05h-14.61c4.13-2.34,3.81-6.23,3.64-10.18-.17-3.97-.04-7.95-.04-13.62-4.08,1.73-7.25,3.07-11.18,4.74.72-2.8,1.43-5.55,2.07-8.03,8.54,2.31,16.45,2.32,24.62.05Z"/>
    <path class="cls-1" d="M273.84,33.57c2.59-.97,4.93-1.84,7.88-2.94v10.97c1.59-.3,2.72-.43,3.81-.74,5.14-1.46,8.15.71,8.39,6.12.15,3.4.25,6.8.38,10.55h-7.08c.36-4.28.74-8.72,1.25-14.68-2.99,1.47-6.26,2.46-6.19,3.13.36,3.8-3.06,8.59,4.13,11.61h-11.84c3.76-5.74,3.6-20.24-.72-24.03Z"/>
    <path class="cls-1" d="M313.69,47.92h-10.29c-.46,6.22,1.03,6.96,9.95,5.41-.08,3.08-3.11,5.44-7.15,5.58-4.54.16-8.84-3.84-9.13-8.49-.36-5.63,3.23-9.85,8.78-10.34,4.3-.37,7.08,2.29,7.83,7.83Z"/>
    <path class="cls-1" d="M468.8,71.92c5.12.31,7.72,2.17,6.89,5.55-.52,2.1-3.37,3.63-5.18,5.42-1.8-1.83-4.76-3.5-5.07-5.55-.27-1.8,2.43-4.05,3.36-5.42Z"/>
  </g>
</svg>