<?xml version="1.0" encoding="UTF-8"?><svg id="a" xmlns="http://www.w3.org/2000/svg" viewBox="0 0 203.59 88.87"><defs><style>.b{letter-spacing:-.05em;}.c{font-size:72px;}.d{stroke-width:0px;}.e{font-family:Arial-BoldMT, Arial;font-weight:700;}.f{font-size:21px;stroke:#000;stroke-miterlimit:10;stroke-width:.25px;}</style></defs><path class="d" d="M32.62,72.85c0,2.75.03,5.49-.01,8.24-.02,1.57.13,3.44-2.21,3.41-2.22-.03-2-1.82-2.01-3.3-.03-2.91.12-5.84-.08-8.74-.08-1.2-.66-2.54-1.41-3.5-1.17-1.49-2.76-2.65-4.03-4.08-2.51-2.85-5.06-4.71-9.39-4.78-6.73-.11-11.9-5.64-13.26-12.58-1.18-6.04,2.19-12.75,8.12-15.75,1.51-.76,1.75-1.48,1.46-3.06-2.14-11.57,3.85-21.7,14.67-25.01,14.73-4.5,29.49,8.42,26.85,23.63-.42,2.4-.27,3.69,2.21,5.02,6.65,3.56,9.11,12.5,5.78,19.37-3.48,7.19-11.82,10.47-19.2,7.63-1.23-.47-3.12-1.28-3.78-.75-1.86,1.45-4.07,2.91-3.78,5.99.26,2.72.05,5.49.05,8.24ZM31.87,51.65c.42-.23.68-.3.68-.38-.01-6.73.01-13.45-.17-20.17-.02-.71-1.28-1.38-1.97-2.08-.67.81-1.89,1.6-1.91,2.42-.15,6.56-.06,13.13-.03,19.7,0,.07.24.14.57.32.43-1.22.85-2.42,1.5-4.26.54,1.8.9,3.02,1.33,4.44ZM28.23,54.07c-2.42,1.94-4.68,3.76-6.45,5.17,2.06,2.22,4.21,4.54,6.45,6.95v-12.12ZM50.59,43.54c-.23-.33-.47-.83-.57-.81-.6.15-1.3.28-1.71.68-3.74,3.67-7.44,7.37-11.09,11.13-.52.53-.66,1.44-.97,2.17.77-.27,1.74-.33,2.28-.84,3.65-3.52,7.22-7.13,10.8-10.73.46-.46.81-1.02,1.27-1.61ZM9.95,51.62c2.72,2.72,5.41,5.47,8.19,8.12.25.24,1.11-.17,1.82-.31-2.52-3.81-7.83-8.47-10.01-7.81ZM32.54,53.63c.1,1.86.16,3.14.25,4.71,2.49-1.67,1.92-2.95-.25-4.71Z"/><text class="e" transform="translate(55.47 61.77)"><tspan class="c"><tspan class="b" x="0" y="0">T</tspan><tspan x="40.02" y="0">ree</tspan></tspan><tspan class="f"><tspan x="15.48" y="17">Photography</tspan></tspan></text></svg>