<?xml version="1.0" encoding="UTF-8"?>
<svg id="Layer_1" data-name="Layer 1" xmlns="http://www.w3.org/2000/svg" viewBox="0 0 254.63 117.68">
  <defs>
    <style>
      .cls-1 {
        letter-spacing: .1em;
      }

      .cls-1, .cls-2, .cls-3, .cls-4, .cls-5, .cls-6 {
        fill: #fff;
      }

      .cls-1, .cls-2, .cls-3, .cls-5, .cls-6 {
        font-family: Arial-BoldMT, Arial;
        font-weight: 700;
      }

      .cls-1, .cls-2, .cls-3, .cls-5, .cls-6, .cls-7 {
        isolation: isolate;
      }

      .cls-1, .cls-6 {
        font-size: 27.24px;
      }

      .cls-2 {
        letter-spacing: -.18em;
      }

      .cls-2, .cls-5 {
        font-size: 30.29px;
      }

      .cls-3 {
        font-size: 95.33px;
        letter-spacing: -.09em;
      }

      .cls-4 {
        stroke-width: 0px;
      }

      .cls-5 {
        letter-spacing: -.03em;
      }

      .cls-7 {
        opacity: .97;
      }
    </style>
  </defs>
  <path class="cls-4" d="M41.69,7.81c2.63,1.09,5.36,2,7.81,3.45,9.44,5.27,14.44,15.71,12.53,26.51-.45,2.63-.36,4.18,2.36,5.72,8.35,4.63,11.44,14.98,7.35,23.61-4.18,8.81-14.16,12.8-23.33,9.35-4.99-1.91-8.99.82-9.08,6.36-.09,6.36.09,12.71-.09,19.07,0,1.73-.82,3.36-1.27,5.08h-2.72c-.36-1.54-1.18-3.27-1-4.72,1.36-8.81-1.54-15.62-8.63-21.16-2.63-2-4.81-3.36-8.26-3.45-11.35-.45-19.43-11.44-16.89-22.52,1.54-6.54,5.81-10.71,11.71-13.44-2.63-11.44-.36-21.34,9.08-28.51,3.09-2.27,6.9-3.54,10.35-5.27,3.36,0,6.72,0,10.08-.09h0ZM38.51,66.92c.27-.09.54-.09.91-.18v-10.35c0-4.63,0-9.35-.27-13.98-.09-1-1.45-1.91-2.27-2.81-.82.91-2.36,1.73-2.45,2.63-.18,8.17-.09,16.25-.09,24.42h.73c.54-1.45,1-2.91,1.73-4.81.73,2,1.18,3.54,1.73,5.08h0ZM33.88,84.89v-14.8c-2.91,2.27-5.54,4.45-7.9,6.26,2.45,2.72,5.08,5.54,7.9,8.53ZM60.3,57.38c-4.9,4.99-10.44,10.71-15.07,15.44,1.82-.27,14.44-12.71,15.07-15.44ZM13,66.1c.27,3.72,7.45,10.62,10.99,10.17-3.72-3.36-7.26-6.72-10.99-10.17Z"/>
  <text class="cls-3" transform="translate(67.89 81.79)"><tspan x="0" y="0">T</tspan></text>
  <g class="cls-7">
    <path class="cls-4" d="M136.22,81.79h-13.08v-49.44h12.15v7.03c2.08-3.32,3.95-5.51,5.61-6.56,1.66-1.05,3.54-1.58,5.66-1.58,2.98,0,5.85.82,8.61,2.47l-4.05,11.4c-2.2-1.43-4.25-2.14-6.14-2.14s-3.38.5-4.65,1.51c-1.27,1.01-2.27,2.83-3,5.47-.73,2.64-1.09,8.16-1.09,16.57v15.27Z"/>
    <path class="cls-4" d="M185.81,66.05l13.03,2.19c-1.68,4.78-4.32,8.42-7.94,10.92-3.62,2.5-8.14,3.75-13.57,3.75-8.6,0-14.96-2.81-19.09-8.43-3.26-4.5-4.89-10.18-4.89-17.04,0-8.19,2.14-14.61,6.42-19.25,4.28-4.64,9.7-6.96,16.25-6.96,7.35,0,13.16,2.43,17.41,7.28,4.25,4.86,6.28,12.3,6.1,22.32h-32.77c.09,3.88,1.15,6.9,3.17,9.05,2.02,2.16,4.53,3.24,7.54,3.24,2.05,0,3.77-.56,5.17-1.68s2.45-2.92,3.17-5.4ZM186.55,52.83c-.09-3.79-1.07-6.66-2.93-8.64-1.86-1.97-4.13-2.96-6.8-2.96-2.86,0-5.21,1.04-7.08,3.12-1.86,2.08-2.78,4.9-2.75,8.47h19.55Z"/>
    <path class="cls-4" d="M235.21,66.05l13.03,2.19c-1.68,4.78-4.32,8.42-7.94,10.92-3.62,2.5-8.14,3.75-13.57,3.75-8.6,0-14.96-2.81-19.09-8.43-3.26-4.5-4.89-10.18-4.89-17.04,0-8.19,2.14-14.61,6.42-19.25,4.28-4.64,9.7-6.96,16.25-6.96,7.35,0,13.16,2.43,17.41,7.28,4.25,4.86,6.28,12.3,6.1,22.32h-32.77c.09,3.88,1.15,6.9,3.17,9.05,2.02,2.16,4.53,3.24,7.54,3.24,2.05,0,3.77-.56,5.17-1.68s2.45-2.92,3.17-5.4ZM235.95,52.83c-.09-3.79-1.07-6.66-2.93-8.64-1.86-1.97-4.13-2.96-6.8-2.96-2.86,0-5.21,1.04-7.08,3.12-1.86,2.08-2.78,4.9-2.75,8.47h19.55Z"/>
  </g>
  <text class="cls-5" transform="translate(70.93 103.58)"><tspan x="0" y="0" xml:space="preserve">  </tspan></text>
  <text class="cls-2" transform="translate(85.21 103.58)"><tspan x="0" y="0"> </tspan></text>
  <text class="cls-6" transform="translate(88.1 103.58)"><tspan x="0" y="0">Photograph</tspan></text>
  <text class="cls-1" transform="translate(239.48 103.58)"><tspan x="0" y="0">y</tspan></text>
</svg>